<!-- BOTC ghost (single-color, unfilled). Set color via CSS (currentColor). -->
<svg xmlns="http://www.w3.org/2000/svg" viewBox="0 0 24 24" role="img" aria-label="Ghost (unfilled)">
  <symbol id="ghost-unfilled" viewBox="0 0 24 24">
    <path fill="currentColor" fill-rule="evenodd" d="
      M12 2.5
      A6.5 6.5 0 0 0 5.5 9
      V20.4
      L7.0 19.5
      L8.5 20.4
      L10.0 19.5
      L11.5 20.4
      L13.0 19.5
      L14.5 20.4
      L16.0 19.5
      L17.5 20.4
      L19.0 19.5
      V9
      A6.5 6.5 0 0 0 12 2.5
      Z

      M9.2 10.2
      m-1.1 0
      a1.1 1.1 0 1 0 2.2 0
      a1.1 1.1 0 1 0 -2.2 0
      Z

      M14.8 10.2
      m-1.1 0
      a1.1 1.1 0 1 0 2.2 0
      a1.1 1.1 0 1 0 -2.2 0
      Z

      M12 15.6
      m-3.1 0
      a3.1 3.1 0 1 0 6.2 0
      a3.1 3.1 0 1 0 -6.2 0
      Z
    "/>
  </symbol>

  <!-- Make the file directly previewable -->
  <use href="#ghost-unfilled" />
</svg>
